<?xml version="1.0" encoding="UTF-8"?>
<svg version="1.1" xmlns="http://www.w3.org/2000/svg" width="800" height="800">
<path d="M0 0 C264 0 528 0 800 0 C800 264 800 528 800 800 C536 800 272 800 0 800 C0 536 0 272 0 0 Z " fill="#FEFEFE" transform="translate(0,0)"/>
<path d="M0 0 C0.66 0 1.32 0 2 0 C12.01952555 25.65909051 22.02347887 51.32415691 32 77 C34.76655418 75.70891619 37.04962067 74.2935196 39.3984375 72.34765625 C40.03523437 71.82429688 40.67203125 71.3009375 41.328125 70.76171875 C42.00359375 70.20097656 42.6790625 69.64023437 43.375 69.0625 C44.81953475 67.87535508 46.26486093 66.68917258 47.7109375 65.50390625 C48.4337793 64.91109863 49.15662109 64.31829102 49.90136719 63.70751953 C52.9033487 61.26500456 55.94743381 58.87877773 59 56.5 C64.04888438 52.55858025 69.03722456 48.5492534 74 44.5 C79.24989307 40.22358437 84.5092953 35.96022034 89.8125 31.75 C90.39322266 31.28400391 90.97394531 30.81800781 91.57226562 30.33789062 C94.04929275 28.38171986 95.97809738 27.00730087 99 26 C98.5703417 29.64679965 98.12968785 33.29220013 97.6875 36.9375 C97.56955078 37.93974609 97.45160156 38.94199219 97.33007812 39.97460938 C96.50229846 46.74542252 95.41760334 53.44602756 94.2011261 60.15577698 C92.38496575 70.27164672 90.96037546 80.44923392 89.47412109 90.61767578 C89.08652047 93.26367707 88.6957223 95.90919191 88.3046875 98.5546875 C88.18801727 99.36082489 88.07134705 100.16696228 87.95114136 100.99752808 C87.49042612 104.11054044 86.99740532 107.00778404 86 110 C86.81629883 109.81171631 87.63259766 109.62343262 88.47363281 109.42944336 C97.85792009 107.33358408 107.22937441 105.8601361 116.75 104.5625 C119.8362985 104.13408306 122.92206896 103.70192508 126.0078125 103.26953125 C126.77044403 103.16309296 127.53307556 103.05665466 128.31881714 102.94699097 C136.4732584 101.80402658 144.60858391 100.54506501 152.74121094 99.25610352 C158.48534373 98.35360487 164.21571128 97.59631843 170 97 C168.70891619 99.76655418 167.2935196 102.04962067 165.34765625 104.3984375 C164.82397461 105.03563721 164.30029297 105.67283691 163.76074219 106.3293457 C163.20032227 107.00441162 162.63990234 107.67947754 162.0625 108.375 C160.88055198 109.81301485 159.69957913 111.25183172 158.51953125 112.69140625 C157.92736816 113.41344238 157.33520508 114.13547852 156.72509766 114.87939453 C154.19279083 117.99227552 151.71785892 121.1484423 149.25 124.3125 C145.34460053 129.31247306 141.3620563 134.23941007 137.328125 139.13671875 C134.13092656 143.06884367 131.00731711 147.05706566 127.89257812 151.0546875 C127.45880859 151.61027344 127.02503906 152.16585937 126.578125 152.73828125 C126.15595703 153.2792041 125.73378906 153.82012695 125.29882812 154.37744141 C123.95995642 156.05002437 122.57019819 157.66995017 121.171875 159.29296875 C118.7914025 161.68156332 118.7914025 161.68156332 119 164 C119.95213379 164.37584229 120.90426758 164.75168457 121.88525391 165.13891602 C146.25683594 174.75927734 170.62841797 184.37963867 195 194 C195 194.66 195 195.32 195 196 C193.41145833 196.63541667 191.82291667 197.27083333 190.234375 197.90625 C189.20884521 198.31649414 188.18331543 198.72673828 187.12670898 199.14941406 C184.85547695 200.05784119 182.58415374 200.9660404 180.31274414 201.87402344 C175.02280341 203.98896081 169.73357209 206.10551058 164.44921875 208.234375 C156.25320873 211.53287458 148.04417383 214.76972235 139.75952148 217.83935547 C132.78784468 220.42993367 125.89269471 223.20727024 119 226 C120.44576587 229.17924634 122.22466351 231.67911188 124.4375 234.375 C127.73082753 238.42650366 130.97466112 242.50983436 134.1875 246.625 C138.77084281 252.48055597 143.44474869 258.25790574 148.14746094 264.01782227 C152.26370814 269.06863185 156.30096853 274.17650961 160.30395508 279.31738281 C162.68817731 282.36911592 165.12517335 285.34642892 167.6875 288.25 C170 291 170 291 170 293 C158.55512735 291.53383686 147.11336228 290.04590904 135.6875 288.4375 C134.86032471 288.32301514 134.03314941 288.20853027 133.1809082 288.09057617 C129.19000158 287.52228782 125.24677439 286.86488344 121.30078125 286.0390625 C113.47973819 284.43124694 105.54833443 283.48861435 97.640625 282.41210938 C95.82304688 282.15977539 95.82304688 282.15977539 93.96875 281.90234375 C92.32036133 281.67792603 92.32036133 281.67792603 90.63867188 281.44897461 C88 281 88 281 86 280 C86.18755859 280.8257251 86.37511719 281.6514502 86.56835938 282.50219727 C88.58306346 291.60071763 90.14142 300.72074685 91.5 309.9375 C91.71703899 311.38609241 91.93424495 312.83465981 92.15161133 314.28320312 C93.5621102 323.74179605 94.87431081 333.21097249 96.01171875 342.70678711 C96.60898946 347.56754412 97.43116581 352.27631877 98.59643555 357.03491211 C99.14558532 359.70890273 99.13935552 362.28256732 99 365 C93.45264619 360.9207637 88.09821201 356.66130984 82.8125 352.25 C77.77526361 348.0712839 72.71153976 343.95945914 67.5 340 C62.33709536 336.07437866 57.31035637 332.00848331 52.3125 327.875 C51.58861084 327.27671387 50.86472168 326.67842773 50.11889648 326.06201172 C48.7203579 324.90549405 47.32199524 323.7487636 45.92382812 322.59179688 C43.30937214 320.42856679 40.6929034 318.26885479 38.0625 316.125 C37.31097656 315.50882813 36.55945313 314.89265625 35.78515625 314.2578125 C34.09147481 312.80800643 34.09147481 312.80800643 32 313 C16.71898052 351.39111451 16.71898052 351.39111451 2 390 C1.34 390 0.68 390 0 390 C-0.37584229 389.01757324 -0.75168457 388.03514648 -1.13891602 387.02294922 C-10.60658277 362.28746584 -20.22894892 337.617184 -30 313 C-32.76655418 314.29108381 -35.04962067 315.7064804 -37.3984375 317.65234375 C-38.03523437 318.17570312 -38.67203125 318.6990625 -39.328125 319.23828125 C-40.00359375 319.79902344 -40.6790625 320.35976563 -41.375 320.9375 C-42.81953475 322.12464492 -44.26486093 323.31082742 -45.7109375 324.49609375 C-46.4337793 325.08890137 -47.15662109 325.68170898 -47.90136719 326.29248047 C-50.9033487 328.73499544 -53.94743381 331.12122227 -57 333.5 C-62.04887607 337.44141326 -67.03752017 341.4503927 -72 345.5 C-77.23758355 349.77211277 -82.49990187 354.0089265 -87.8125 358.1875 C-88.39322266 358.64511719 -88.97394531 359.10273437 -89.57226562 359.57421875 C-92.00121789 361.47791372 -94.43046681 363.28697787 -97 365 C-96.3430504 357.63143383 -95.3703802 350.33984493 -94.2578125 343.02734375 C-94.08877411 341.9054213 -93.91973572 340.78349884 -93.74557495 339.62757874 C-93.38872401 337.26333606 -93.03064076 334.8992791 -92.67138672 332.53540039 C-92.13034241 328.97267921 -91.59417272 325.40924951 -91.05859375 321.84570312 C-88.94679949 307.85595165 -86.82457391 293.86743841 -84 280 C-85.10730469 280.24234375 -86.21460938 280.4846875 -87.35546875 280.734375 C-98.78935037 283.1636769 -110.24243059 284.95172793 -121.82788086 286.49243164 C-131.38638425 287.76418535 -140.91451225 289.18220588 -150.43798828 290.69335938 C-156.28350916 291.61349643 -162.11312606 292.39543514 -168 293 C-166.68634784 290.17661664 -165.22203388 287.86065127 -163.2421875 285.4609375 C-162.43370361 284.47456299 -162.43370361 284.47456299 -161.60888672 283.46826172 C-161.0367041 282.77748535 -160.46452148 282.08670898 -159.875 281.375 C-158.68725542 279.92728396 -157.49975454 278.47936794 -156.3125 277.03125 C-155.45205078 275.98517578 -155.45205078 275.98517578 -154.57421875 274.91796875 C-150.49312573 269.94571894 -146.49145116 264.90958607 -142.52734375 259.84375 C-136.38331609 251.99236245 -130.15020087 244.22090705 -123.84765625 236.49609375 C-123.3592627 235.89522949 -122.87086914 235.29436523 -122.36767578 234.67529297 C-121.14943088 233.18304082 -119.91744558 231.70203003 -118.68359375 230.22265625 C-116.82872448 228.02074499 -116.82872448 228.02074499 -116 225 C-116.87294205 224.87703049 -117.74588409 224.75406097 -118.64527893 224.62736511 C-121.86970314 224.02436677 -124.62348969 223.14745734 -127.67553711 221.9621582 C-128.76785141 221.54114334 -129.86016571 221.12012848 -130.98558044 220.68635559 C-132.73875328 220.00049629 -132.73875328 220.00049629 -134.52734375 219.30078125 C-135.74845352 218.82811325 -136.96956329 218.35544525 -138.22767639 217.86845398 C-141.47402267 216.61165924 -144.71760334 215.34787182 -147.96069336 214.08270264 C-151.20965551 212.81684326 -154.46145047 211.55830532 -157.71289062 210.29882812 C-169.83515823 205.59933012 -181.94868352 200.87912295 -194 196 C-194 195.34 -194 194.68 -194 194 C-168.34090949 183.98047445 -142.67584309 173.97652113 -117 164 C-118.24914142 161.34633879 -119.58253217 159.09272811 -121.43359375 156.8203125 C-121.9116748 156.22879395 -122.38975586 155.63727539 -122.88232422 155.02783203 C-123.39553223 154.39989746 -123.90874023 153.77196289 -124.4375 153.125 C-125.5331503 151.7713173 -126.62818964 150.4171399 -127.72265625 149.0625 C-128.27453613 148.38058594 -128.82641602 147.69867188 -129.39501953 146.99609375 C-131.75308605 144.06339648 -134.06289737 141.09395485 -136.375 138.125 C-140.49905076 132.84555265 -144.72832048 127.66052703 -149 122.5 C-153.48321433 117.07758025 -157.94066766 111.63781654 -162.3125 106.125 C-162.77462891 105.54814453 -163.23675781 104.97128906 -163.71289062 104.37695312 C-165.65184078 101.91540691 -166.99986835 100.00039495 -168 97 C-156.70203664 98.1892593 -145.49980223 99.68743963 -134.32885742 101.75341797 C-125.82224442 103.28085109 -117.24992918 104.3663157 -108.67919922 105.46630859 C-100.3334407 106.56909607 -92.20507514 108.12151289 -84 110 C-84.19553467 109.14019531 -84.39106934 108.28039062 -84.5925293 107.39453125 C-86.38993006 99.28771784 -87.76471995 91.23374552 -88.8125 83 C-90.65315591 69.06067174 -92.82522457 55.18410772 -95.06958008 41.3046875 C-95.19752457 40.50850006 -95.32546906 39.71231262 -95.45729065 38.89199829 C-95.69850998 37.39195809 -95.94175872 35.89224235 -96.18736267 34.39291382 C-96.64344149 31.55513285 -97 28.88011634 -97 26 C-94.23344582 27.29108381 -91.95037933 28.7064804 -89.6015625 30.65234375 C-88.96476562 31.17570312 -88.32796875 31.6990625 -87.671875 32.23828125 C-86.99640625 32.79902344 -86.3209375 33.35976562 -85.625 33.9375 C-84.18046525 35.12464492 -82.73513907 36.31082742 -81.2890625 37.49609375 C-80.5662207 38.08890137 -79.84337891 38.68170898 -79.09863281 39.29248047 C-76.0966513 41.73499544 -73.05256619 44.12122227 -70 46.5 C-64.95111562 50.44141975 -59.96277544 54.4507466 -55 58.5 C-49.75010693 62.77641563 -44.4907047 67.03977966 -39.1875 71.25 C-38.60677734 71.71599609 -38.02605469 72.18199219 -37.42773438 72.66210938 C-34.95070725 74.61828014 -33.02190262 75.99269913 -30 77 C-29.60321045 75.96520508 -29.2064209 74.93041016 -28.79760742 73.86425781 C-19.33349598 49.18938967 -9.84160812 24.52742528 0 0 Z " fill="#020202" transform="translate(399,205)"/>
<path d="M0 0 C1.46566406 0.75023437 1.46566406 0.75023437 2.9609375 1.515625 C24.71650493 13.27847773 41.2780971 33.9002317 48.96875 57.3359375 C54.5529903 77.17691251 55.44253636 98.26973241 49 118 C48.79632813 118.63309082 48.59265625 119.26618164 48.3828125 119.91845703 C40.05104623 144.90732701 22.1321323 164.6246411 -0.96142578 176.99072266 C-7.06243944 180.01127241 -13.48838062 182.06872386 -20 184 C-21.08023438 184.3403125 -22.16046875 184.680625 -23.2734375 185.03125 C-46.95448119 191.34619498 -73.13676036 187.24764368 -94.18017578 175.09130859 C-118.60510734 160.44421387 -135.3373472 139.37651177 -142.84130859 111.79833984 C-147.09892408 94.46014542 -146.66834049 75.91240153 -141 59 C-140.62617188 57.79214844 -140.25234375 56.58429688 -139.8671875 55.33984375 C-131.74991258 30.63859986 -113.75943947 11.11127314 -91 -1 C-62.43882174 -14.93690108 -28.0724219 -15.28471489 0 0 Z " fill="#FCFCFC" transform="translate(446,312)"/>
<path d="M0 0 C0 54.78 0 109.56 0 166 C-14.08853562 166 -14.08853562 166 -20.8125 164 C-21.57530273 163.77707275 -22.33810547 163.55414551 -23.12402344 163.32446289 C-44.67175633 156.65631312 -61.88107261 141.7642789 -72.3828125 121.89599609 C-75.64221437 115.45716842 -78.38163877 109.05751513 -80 102 C-80.20238281 101.25234375 -80.40476562 100.5046875 -80.61328125 99.734375 C-85.35339672 80.25798218 -80.66622242 57.99922648 -70.8203125 40.85546875 C-57.4362671 19.86032458 -38.85781471 6.33634059 -14.49609375 0.48046875 C-9.70642881 -0.17777571 -4.83468469 0 0 0 Z " fill="#010101" transform="translate(398,317)"/>
<path d="M0 0 C3.94220353 0.65703392 7.69160887 -0.00548383 11.625 -0.5625 C11.625 0.0975 11.625 0.7575 11.625 1.4375 C12.223125 1.499375 12.82125 1.56125 13.4375 1.625 C15.625 2.4375 15.625 2.4375 17.25 4.34375 C19.23990801 8.82104303 18.94581996 12.91287846 18.8125 17.75 C18.79219727 19.14702148 18.79219727 19.14702148 18.77148438 20.57226562 C18.73626882 22.86127646 18.68702099 25.14908458 18.625 27.4375 C13.875 28.5625 13.875 28.5625 11.625 27.4375 C11.295 21.4975 10.965 15.5575 10.625 9.4375 C8.975 8.7775 7.325 8.1175 5.625 7.4375 C5.295 13.7075 4.965 19.9775 4.625 26.4375 C2.645 27.4275 2.645 27.4275 0.625 28.4375 C-2.375 26.4375 -2.375 26.4375 -2.80737305 24.55810547 C-2.83355713 23.81447754 -2.85974121 23.07084961 -2.88671875 22.3046875 C-2.92216797 21.49902344 -2.95761719 20.69335938 -2.99414062 19.86328125 C-3.01669922 19.02152344 -3.03925781 18.17976563 -3.0625 17.3125 C-3.09666016 16.46300781 -3.13082031 15.61351562 -3.16601562 14.73828125 C-3.24859173 12.63848895 -3.31346978 10.53801436 -3.375 8.4375 C-5.025 8.4375 -6.675 8.4375 -8.375 8.4375 C-8.705 14.7075 -9.035 20.9775 -9.375 27.4375 C-11.685 27.4375 -13.995 27.4375 -16.375 27.4375 C-16.52111313 24.06296102 -16.60933467 20.68924234 -16.6875 17.3125 C-16.7503418 15.88550781 -16.7503418 15.88550781 -16.81445312 14.4296875 C-16.95259974 6.47244261 -16.95259974 6.47244261 -13.98046875 2.8203125 C-9.64246843 -1.14697415 -5.74438678 -1.36051266 0 0 Z " fill="#262626" transform="translate(378.375,400.5625)"/>
<path d="M0 0 C0 -0.66 0 -1.32 0 -2 C2.31 -2 4.62 -2 7 -2 C7.62893546 9.02384099 5.86737699 18.42654736 3 29 C-0.41306555 23.67884268 0.88800402 17.04778317 1 11 C0.67 15.62 0.34 20.24 0 25 C-1.32 25 -2.64 25 -4 25 C-4 19.72 -4 14.44 -4 9 C-4.99 9.33 -5.98 9.66 -7 10 C-8.65 9.67 -10.3 9.34 -12 9 C-12 13.29 -12 17.58 -12 22 C-12.33 22 -12.66 22 -13 22 C-13.33 18.37 -13.66 14.74 -14 11 C-14.33 15.62 -14.66 20.24 -15 25 C-14.34 25 -13.68 25 -13 25 C-13.33 25.99 -13.66 26.98 -14 28 C-15.65 28 -17.3 28 -19 28 C-18.34 27.34 -17.68 26.68 -17 26 C-17.65226562 25.67128906 -18.30453125 25.34257812 -18.9765625 25.00390625 C-21 23 -21 23 -21.4609375 19.27734375 C-21.45298034 17.83046745 -21.42358632 16.38358219 -21.375 14.9375 C-21.37371094 14.20466797 -21.37242187 13.47183594 -21.37109375 12.71679688 C-21.28125 7.28125 -21.28125 7.28125 -19 5 C-18.67 5.33 -18.34 5.66 -18 6 C-17.67 5.34 -17.34 4.68 -17 4 C-17.66 4 -18.32 4 -19 4 C-19 3.34 -19 2.68 -19 2 C-18.34 2 -17.68 2 -17 2 C-17 1.34 -17 0.68 -17 0 C-11.36141254 -2.99549959 -5.95297415 -1.73628413 0 0 Z " fill="#F3F3F3" transform="translate(492,401)"/>
<path d="M0 0 C3.48297141 2.99922538 5.89224557 6.52809461 6.57128906 11.10131836 C6.64162187 13.37202779 6.60111964 15.60564198 6.5 17.875 C6.47292969 19.04385742 6.47292969 19.04385742 6.4453125 20.23632812 C6.39866383 22.13726131 6.32693829 24.03755169 6.25 25.9375 C4.27 26.9275 4.27 26.9275 2.25 27.9375 C1.26 27.2775 0.27 26.6175 -0.75 25.9375 C-1.05588676 23.39922813 -1.21651463 21.04249621 -1.25 18.5 C-1.16966259 13.4860622 -1.16966259 13.4860622 -3.11328125 9.0078125 C-5.25590299 7.60667083 -7.23427721 7.27746254 -9.75 6.9375 C-11.28224072 9.37105879 -11.78344238 10.59471564 -11.5 13.5 C-10.80904947 16.15819209 -10.80904947 16.15819209 -8.75 18.9375 C-7.904375 19.246875 -7.05875 19.55625 -6.1875 19.875 C-3.75 20.9375 -3.75 20.9375 -2.8125 22.875 C-2.75 24.9375 -2.75 24.9375 -4.75 27.9375 C-10.37170399 27.70804269 -13.14632556 26.28689318 -17.3671875 22.60546875 C-20.28449822 19.0865657 -20.07926734 14.59134853 -20.04296875 10.19921875 C-19.57141554 6.55882794 -18.14424513 4.68384 -15.75 1.9375 C-15.09 1.9375 -14.43 1.9375 -13.75 1.9375 C-13.75 1.2775 -13.75 0.6175 -13.75 -0.0625 C-9.00307382 -1.64480873 -4.63879534 -1.79226184 0 0 Z " fill="#282828" transform="translate(348.75,401.0625)"/>
<path d="M0 0 C2.375 -0.125 2.375 -0.125 5 0 C8.2928231 3.2928231 7.29652672 7.40385658 7.32226562 11.88476562 C7.31904297 13.18091797 7.31582031 14.47707031 7.3125 15.8125 C7.32861328 17.09705078 7.34472656 18.38160156 7.36132812 19.70507812 C7.36197266 20.94322266 7.36261719 22.18136719 7.36328125 23.45703125 C7.36626221 24.59116455 7.36924316 25.72529785 7.37231445 26.89379883 C6.95514639 30.37421148 6.09371978 32.21297926 4 35 C3.01 35.66 2.02 36.32 1 37 C-1.26831055 36.49267578 -1.26831055 36.49267578 -3.88671875 35.4453125 C-4.82451172 35.07792969 -5.76230469 34.71054687 -6.72851562 34.33203125 C-7.70498047 33.93371094 -8.68144531 33.53539062 -9.6875 33.125 C-10.67556641 32.73441406 -11.66363281 32.34382813 -12.68164062 31.94140625 C-15.12621454 30.97302431 -17.56501968 29.99220468 -20 29 C-19.70321695 27.39744685 -19.39986478 25.79610934 -19.09375 24.1953125 C-18.92552734 23.30344238 -18.75730469 22.41157227 -18.58398438 21.49267578 C-17.89426139 18.54866588 -16.89157541 16.36446926 -15 14 C-14.34 14 -13.68 14 -13 14 C-13 13.34 -13 12.68 -13 12 C-5.375 10.75 -5.375 10.75 -2 13 C-2.33 14.98 -2.66 16.96 -3 19 C-5.31 19.66 -7.62 20.32 -10 21 C-10.020625 22.299375 -10.04125 23.59875 -10.0625 24.9375 C-10.07410156 25.66839844 -10.08570313 26.39929688 -10.09765625 27.15234375 C-10.20561184 29.01732141 -10.20561184 29.01732141 -9 30 C-6.67182036 30.36760731 -4.3381615 30.70241581 -2 31 C-0.8992924 27.6978772 -0.79372928 25.05916721 -0.68359375 21.58203125 C-0.64169922 20.32841797 -0.59980469 19.07480469 -0.55664062 17.78320312 C-0.51732422 16.47287109 -0.47800781 15.16253906 -0.4375 13.8125 C-0.39429008 12.47720022 -0.350675 11.14191348 -0.30664062 9.80664062 C-0.20043498 6.53786703 -0.09839003 3.26901667 0 0 Z " fill="#2A2A2A" transform="translate(268,389)"/>
<path d="M0 0 C0.7734375 -0.01417969 1.546875 -0.02835937 2.34375 -0.04296875 C4.5 0.1875 4.5 0.1875 7.5 2.1875 C7.5 2.8475 7.5 3.5075 7.5 4.1875 C8.16 4.1875 8.82 4.1875 9.5 4.1875 C10 6.6875 10 6.6875 9.5 10.1875 C7.22288077 13.32892726 4.77079904 16.08117392 1.5 18.1875 C-1.26953125 17.91015625 -1.26953125 17.91015625 -3.5 17.1875 C-3.17 14.8775 -2.84 12.5675 -2.5 10.1875 C-3.49 10.5175 -4.48 10.8475 -5.5 11.1875 C-5.96319957 15.42545271 -5.96319957 15.42545271 -4 19 C-0.49565869 20.66456212 2.63703594 20.86558633 6.5 21.1875 C6.5 21.8475 6.5 22.5075 6.5 23.1875 C7.16 23.5175 7.82 23.8475 8.5 24.1875 C1.57 26.6625 1.57 26.6625 -5.5 29.1875 C-5.5 28.5275 -5.5 27.8675 -5.5 27.1875 C-6.36625 26.878125 -6.36625 26.878125 -7.25 26.5625 C-10.51471209 24.56739816 -11.76414622 22.59721278 -13.5 19.1875 C-14.67770087 12.71014522 -13.13027325 8.51946383 -9.5 3.1875 C-8.84 3.1875 -8.18 3.1875 -7.5 3.1875 C-7.5 2.5275 -7.5 1.8675 -7.5 1.1875 C-4.71398777 0.25882926 -2.88933911 0.02407783 0 0 Z " fill="#292929" transform="translate(527.5,399.8125)"/>
<path d="M0 0 C2.01822917 0.06510417 4.03645833 0.13020833 6.0546875 0.1953125 C6.22073486 1.04125977 6.22073486 1.04125977 6.39013672 1.90429688 C6.90121866 4.50172061 7.41543404 7.0985149 7.9296875 9.6953125 C8.10371094 10.5821875 8.27773438 11.4690625 8.45703125 12.3828125 C9.51226373 17.69805759 10.69426417 22.94971623 12.0546875 28.1953125 C8.7546875 28.1953125 5.4546875 28.1953125 2.0546875 28.1953125 C2.3846875 27.5353125 2.7146875 26.8753125 3.0546875 26.1953125 C0.7446875 26.1953125 -1.5653125 26.1953125 -3.9453125 26.1953125 C-4.2753125 26.8553125 -4.6053125 27.5153125 -4.9453125 28.1953125 C-5.62284482 25.36419532 -6.28749977 22.53101874 -6.9453125 19.6953125 C-7.13609375 18.90382813 -7.326875 18.11234375 -7.5234375 17.296875 C-8.70866191 12.13268293 -9.13972532 7.49306189 -8.9453125 2.1953125 C-8.1615625 2.2365625 -7.3778125 2.2778125 -6.5703125 2.3203125 C-3.30867816 2.16499658 -3.03327338 0.30454552 0 0 Z " fill="#F2F2F2" transform="translate(309.9453125,401.8046875)"/>
<path d="M0 0 C0.680625 0.00644531 1.36125 0.01289063 2.0625 0.01953125 C4 0.1875 4 0.1875 7 1.1875 C7.33 3.1675 7.66 5.1475 8 7.1875 C5.64031256 9.28499995 4.45383006 10.15655704 1.25 10.375 C0.5075 10.313125 -0.235 10.25125 -1 10.1875 C-0.95875 11.445625 -0.9175 12.70375 -0.875 14 C-0.7609626 17.47814073 -0.94074319 18.09861478 -3 21.1875 C-3.33 19.2075 -3.66 17.2275 -4 15.1875 C-3.98839844 15.95835937 -3.97679687 16.72921875 -3.96484375 17.5234375 C-3.95130859 19.02777344 -3.95130859 19.02777344 -3.9375 20.5625 C-3.92589844 21.56023437 -3.91429687 22.55796875 -3.90234375 23.5859375 C-4 26.1875 -4 26.1875 -5 28.1875 C-5.99 27.8575 -6.98 27.5275 -8 27.1875 C-10.06618749 27.28018505 -10.06618749 27.28018505 -12.1875 27.625 C-13.445625 27.810625 -14.70375 27.99625 -16 28.1875 C-16.5625 26.25 -16.5625 26.25 -17 24.1875 C-16 23.1875 -16 23.1875 -12.9375 23.125 C-11.4834375 23.1559375 -11.4834375 23.1559375 -10 23.1875 C-10 22.5275 -10 21.8675 -10 21.1875 C-10.66 21.5175 -11.32 21.8475 -12 22.1875 C-13.99960012 22.227492 -16.00047242 22.23096799 -18 22.1875 C-15.8614515 20.0489515 -14.86724686 19.76094937 -12 19.1875 C-11.97421875 18.46304687 -11.9484375 17.73859375 -11.921875 16.9921875 C-11.56055951 10.83340076 -11.09729843 6.88734231 -7 2.1875 C-3.97455666 0.17053778 -3.38932618 -0.07061096 0 0 Z M-4 2.1875 C-4 2.5175 -4 2.8475 -4 3.1875 C-1.36 3.1875 1.28 3.1875 4 3.1875 C4 2.8575 4 2.5275 4 2.1875 C1.36 2.1875 -1.28 2.1875 -4 2.1875 Z M-19 22.1875 C-18.67 22.1875 -18.34 22.1875 -18 22.1875 C-18 24.4975 -18 26.8075 -18 29.1875 C-19.0625 27.375 -19.0625 27.375 -20 25.1875 C-19.67 24.1975 -19.34 23.2075 -19 22.1875 Z " fill="#F4F4F4" transform="translate(420,398.8125)"/>
<path d="M0 0 C2.36497439 1.86708505 3.66030715 3.32061431 5 6 C5.08342159 7.44848582 5.10732861 8.90070869 5.09765625 10.3515625 C5.09443359 11.20234375 5.09121094 12.053125 5.08789062 12.9296875 C5.07951172 13.81914062 5.07113281 14.70859375 5.0625 15.625 C5.05798828 16.5221875 5.05347656 17.419375 5.04882812 18.34375 C5.03702591 20.56256648 5.02056155 22.78125018 5 25 C4.01 24.67 3.02 24.34 2 24 C1.67 18.06 1.34 12.12 1 6 C0.34 6 -0.32 6 -1 6 C-1 5.34 -1 4.68 -1 4 C-3.31 4.33 -5.62 4.66 -8 5 C-8 11.27 -8 17.54 -8 24 C-9.32 24 -10.64 24 -12 24 C-12.33 17.73 -12.66 11.46 -13 5 C-15.64 5 -18.28 5 -21 5 C-22.18695553 8.56086658 -22.35095418 11.97331024 -22.5625 15.6875 C-22.60568359 16.38939453 -22.64886719 17.09128906 -22.69335938 17.81445312 C-22.7991736 19.54275206 -22.90006581 21.2713511 -23 23 C-23.99 23.33 -24.98 23.66 -26 24 C-26.08733513 20.91684615 -26.14050127 17.83401173 -26.1875 14.75 C-26.21263672 13.87730469 -26.23777344 13.00460937 -26.26367188 12.10546875 C-26.3369376 5.70692919 -26.3369376 5.70692919 -24.765625 2.41015625 C-22.53405904 0.62786574 -21.39175183 0.54913861 -18.5625 0.6875 C-17.80066406 0.71199219 -17.03882813 0.73648437 -16.25390625 0.76171875 C-14 1 -14 1 -11.90234375 1.64453125 C-8.28178994 2.32106184 -4.51948739 -0.47573551 0 0 Z " fill="#060606" transform="translate(390,402)"/>
<path d="M0 0 C2.75 0.5625 2.75 0.5625 4.75 2.5625 C4.6875 5 4.6875 5 3.75 7.5625 C2.92113281 7.9440625 2.09226562 8.325625 1.23828125 8.71875 C-1.66488405 10.42989945 -1.66488405 10.42989945 -1.921875 14.28515625 C-1.97223883 15.73112838 -1.99744147 17.1781533 -2 18.625 C-2.17822581 26.41895161 -2.17822581 26.41895161 -3.25 28.5625 C-5.23 28.5625 -7.21 28.5625 -9.25 28.5625 C-9.42576433 25.20900673 -9.53132437 21.85671021 -9.625 18.5 C-9.67527344 17.55705078 -9.72554688 16.61410156 -9.77734375 15.64257812 C-9.90474823 9.54839738 -9.09712371 6.2298285 -4.86669922 1.76416016 C-3.25 0.5625 -3.25 0.5625 0 0 Z " fill="#2A2A2A" transform="translate(290.25,399.4375)"/>
<path d="M0 0 C3.79815129 0.78829555 5.49230312 1.97346928 8 5 C9.3890775 9.31069738 9.18395882 13.64186872 9.1875 18.125 C9.19974609 18.94871094 9.21199219 19.77242188 9.22460938 20.62109375 C9.22983265 22.74870714 9.1226232 24.87591677 9 27 C8.34 27.66 7.68 28.32 7 29 C2.44444444 28.44444444 2.44444444 28.44444444 1 27 C0.84174742 25.00217874 0.74880829 22.99911166 0.68359375 20.99609375 C0.64169922 19.78115234 0.59980469 18.56621094 0.55664062 17.31445312 C0.51732422 16.03505859 0.47800781 14.75566406 0.4375 13.4375 C0.39431641 12.15423828 0.35113281 10.87097656 0.30664062 9.54882812 C0.200152 6.36600147 0.09814038 3.18309326 0 0 Z " fill="#272727" transform="translate(499,400)"/>
<path d="M0 0 C2.82061295 2.25649036 3.65948361 2.95876072 4.8125 6.25 C4.95247227 9.03824758 5.0013913 11.71827116 4.9375 14.5 C4.92847656 15.24507813 4.91945313 15.99015625 4.91015625 16.7578125 C4.88668358 18.58868059 4.85081525 20.41938238 4.8125 22.25 C3.8225 22.25 2.8325 22.25 1.8125 22.25 C1.78671875 21.21359375 1.7609375 20.1771875 1.734375 19.109375 C1.67808049 17.73954199 1.62073345 16.36975195 1.5625 15 C1.54832031 14.31808594 1.53414063 13.63617188 1.51953125 12.93359375 C1.35449895 9.53392837 1.01929441 7.53207288 -1.01171875 4.76171875 C-3.23368505 2.90341494 -3.23368505 2.90341494 -6.75 3.3125 C-10.7583469 4.28258577 -10.7583469 4.28258577 -13.1875 7.25 C-13.50396096 10.96841631 -13.10032548 13.59869809 -12.1875 17.25 C-9.5475 17.91 -6.9075 18.57 -4.1875 19.25 C-4.1875 20.24 -4.1875 21.23 -4.1875 22.25 C-10.54161471 22.73877805 -10.54161471 22.73877805 -13.5 20.5 C-16.59118105 16.37842527 -17.65325237 13.61788479 -17.50390625 8.28125 C-16.97004307 4.85398018 -15.44415977 2.81161379 -13.1875 0.25 C-8.38671043 -2.45813771 -4.82933936 -2.651402 0 0 Z " fill="#050505" transform="translate(348.1875,403.75)"/>
<path d="M0 0 C1.98 0.66 3.96 1.32 6 2 C6 3.32 6 4.64 6 6 C9.63 6 13.26 6 17 6 C17 6.66 17 7.32 17 8 C17.66 8.33 18.32 8.66 19 9 C19.6875 11 19.6875 11 20 13 C17.86264735 15.13735265 13.36198992 14.50995949 10.46875 14.71875 C8.0586395 14.73385265 8.0586395 14.73385265 7 16 C6.85363946 19.36629251 6.92806521 21.78419562 8 25 C7.34 25 6.68 25 6 25 C5.34 23.35 4.68 21.7 4 20 C3.690625 20.78375 3.38125 21.5675 3.0625 22.375 C2 25 2 25 1 27 C0 26 0 26 -0.11352539 23.49975586 C-0.10828857 22.41573486 -0.10305176 21.33171387 -0.09765625 20.21484375 C-0.09443359 19.04501953 -0.09121094 17.87519531 -0.08789062 16.66992188 C-0.07951172 15.43822266 -0.07113281 14.20652344 -0.0625 12.9375 C-0.05798828 11.70193359 -0.05347656 10.46636719 -0.04882812 9.19335938 C-0.03699608 6.12885883 -0.02051173 3.06445279 0 0 Z M1 2 C1 4.64 1 7.28 1 10 C1.33 10 1.66 10 2 10 C2.33 7.36 2.66 4.72 3 2 C2.34 2 1.68 2 1 2 Z " fill="#F4F4F4" transform="translate(432,395)"/>
<path d="M0 0 C1.1446875 0.3403125 1.1446875 0.3403125 2.3125 0.6875 C2.28220703 1.42911377 2.25191406 2.17072754 2.22070312 2.93481445 C2.08400963 6.28985115 1.94824389 9.64492476 1.8125 13 C1.76480469 14.16724609 1.71710938 15.33449219 1.66796875 16.53710938 C1.62285156 17.65537109 1.57773437 18.77363281 1.53125 19.92578125 C1.48935547 20.95743408 1.44746094 21.98908691 1.40429688 23.05200195 C1.33889796 24.92961189 1.3125 26.80875145 1.3125 28.6875 C1.3125 29.0175 1.3125 29.3475 1.3125 29.6875 C-1.0625 29.8125 -1.0625 29.8125 -3.6875 29.6875 C-6.83624039 26.53875961 -5.98226873 23.06849849 -6.00976562 18.77148438 C-6.00654297 17.60939453 -6.00332031 16.44730469 -6 15.25 C-6.01611328 14.09177734 -6.03222656 12.93355469 -6.04882812 11.74023438 C-6.04947266 10.63099609 -6.05011719 9.52175781 -6.05078125 8.37890625 C-6.05376221 7.35998291 -6.05674316 6.34105957 -6.05981445 5.29125977 C-5.6875 2.6875 -5.6875 2.6875 -4.47729492 0.76928711 C-2.6875 -0.3125 -2.6875 -0.3125 0 0 Z " fill="#F4F4F4" transform="translate(462.6875,399.3125)"/>
<path d="M0 0 C2.0625 1.25 2.0625 1.25 3 3 C3.07396446 5.81064963 2.59743433 7.34549731 0.69140625 9.43359375 C-1.97750203 11.78303171 -3.37195604 13 -7 13 C-6.42618522 9.67187429 -5.40619252 8.30157545 -3 6 C-3 5.34 -3 4.68 -3 4 C-6.04386724 3.91773332 -8.07175348 4.02391783 -11 5 C-12.1845131 8.55353929 -12.26641894 11.27013478 -12 15 C-10.60414215 16.81476003 -10.60414215 16.81476003 -9 18 C-9 18.66 -9 19.32 -9 20 C-6.03 20 -3.06 20 0 20 C-0.33 20.99 -0.66 21.98 -1 23 C-2.45823212 23.0270043 -3.91660675 23.04639787 -5.375 23.0625 C-6.18710937 23.07410156 -6.99921875 23.08570313 -7.8359375 23.09765625 C-10 23 -10 23 -12 22 C-12 21.34 -12 20.68 -12 20 C-12.66 20 -13.32 20 -14 20 C-16.35785972 15.4316468 -16.42484112 11.02893321 -16 6 C-15.67 5.34 -15.34 4.68 -15 4 C-14.34 4 -13.68 4 -13 4 C-12.67 3.01 -12.34 2.02 -12 1 C-8.37714459 -1.89828433 -4.22536244 -1.08319673 0 0 Z " fill="#050505" transform="translate(532,403)"/>
<path d="M0 0 C2.77339863 0.28690331 3.79458207 0.75902897 5.625 2.90625 C7.61490801 7.38354303 7.32081996 11.47537846 7.1875 16.3125 C7.16719727 17.70952148 7.16719727 17.70952148 7.14648438 19.13476562 C7.11126882 21.42377646 7.06202099 23.71158458 7 26 C2.25 27.125 2.25 27.125 0 26 C-0.33 20.06 -0.66 14.12 -1 8 C-3.475 7.01 -3.475 7.01 -6 6 C-6.33 12.27 -6.66 18.54 -7 25 C-7.99 25 -8.98 25 -10 25 C-9.67 24.67 -9.34 24.34 -9 24 C-8.84379445 22.58672053 -8.74943827 21.1664541 -8.68359375 19.74609375 C-8.64169922 18.89208984 -8.59980469 18.03808594 -8.55664062 17.15820312 C-8.51732422 16.26037109 -8.47800781 15.36253906 -8.4375 14.4375 C-8.39431641 13.53580078 -8.35113281 12.63410156 -8.30664062 11.70507812 C-8.20021858 9.47021515 -8.09820012 7.23523692 -8 5 C-4.535 4.505 -4.535 4.505 -1 4 C-1 4.66 -1 5.32 -1 6 C-0.34 6 0.32 6 1 6 C2.83435809 9.66871618 2.37336838 14.25273709 2.51757812 18.32226562 C2.60890568 20.21946625 2.79713434 22.11146711 3 24 C3.66 24.33 4.32 24.66 5 25 C4.88576707 21.93675381 4.75902148 18.87489086 4.625 15.8125 C4.5940625 14.94818359 4.563125 14.08386719 4.53125 13.19335938 C4.259855 6.86509688 4.259855 6.86509688 2 1 C1.34 0.67 0.68 0.34 0 0 Z " fill="#2E2E2E" transform="translate(390,402)"/>
<path d="M0 0 C1.5547669 3.10953379 1.28644437 5.56266761 1 9 C-2.05263158 14.68421053 -2.05263158 14.68421053 -6 16 C-6.33 14.35 -6.66 12.7 -7 11 C-7.928125 11.20625 -8.85625 11.4125 -9.8125 11.625 C-13 12 -13 12 -16 10 C-15.67 9.34 -15.34 8.68 -15 8 C-14.01 8 -13.02 8 -12 8 C-9.2160817 6.60804085 -9.02101003 4.84424221 -8 2 C-7.67 2 -7.34 2 -7 2 C-7.020625 2.804375 -7.04125 3.60875 -7.0625 4.4375 C-7.29633621 6.93354885 -7.29633621 6.93354885 -6 8 C-5.8453125 6.576875 -5.8453125 6.576875 -5.6875 5.125 C-4.89960329 1.54365133 -3.89650761 0 0 0 Z " fill="#F4F4F4" transform="translate(452,412)"/>
<path d="M0 0 C0.99 0 1.98 0 3 0 C3.11651725 4.37477474 3.18736 8.74914827 3.25 13.125 C3.28351563 14.3625 3.31703125 15.6 3.3515625 16.875 C3.4621466 27.15932107 3.4621466 27.15932107 1.234375 30.8671875 C-1 33 -1 33 -5 33 C-5 32.01 -5 31.02 -5 30 C-4.35256836 29.57098389 -3.70513672 29.14196777 -3.03808594 28.69995117 C-0.71657662 27.1277217 -0.71657662 27.1277217 -0.45410156 24.1809082 C-0.4331543 23.06546631 -0.41220703 21.95002441 -0.390625 20.80078125 C-0.35839844 19.59228516 -0.32617188 18.38378906 -0.29296875 17.13867188 C-0.27878906 15.87603516 -0.26460938 14.61339844 -0.25 13.3125 C-0.22035156 12.03826172 -0.19070313 10.76402344 -0.16015625 9.45117188 C-0.08935951 6.30071708 -0.03670953 3.1510066 0 0 Z " fill="#050505" transform="translate(270,391)"/>
<path d="M0 0 C2.40180428 0.8989209 4.67432762 1.90835786 7 3 C6.91291331 4.45945288 6.80473093 5.91765868 6.6875 7.375 C6.62949219 8.18710937 6.57148438 8.99921875 6.51171875 9.8359375 C6 12 6 12 3 14 C2.77213542 12.01432292 2.54427083 10.02864583 2.31640625 8.04296875 C2.02829265 5.80603607 2.02829265 5.80603607 1 3 C-3.455 3.495 -3.455 3.495 -8 4 C-8.66 5.98 -9.32 7.96 -10 10 C-10.33 10 -10.66 10 -11 10 C-11.8125 6.75 -11.8125 6.75 -12 3 C-8.34198626 -1.57251718 -5.42502285 -1.40302315 0 0 Z M-13 5 C-12.67 5 -12.34 5 -12 5 C-12 7.31 -12 9.62 -12 12 C-12.33 12 -12.66 12 -13 12 C-13 9.69 -13 7.38 -13 5 Z " fill="#F0F0F0" transform="translate(467,377)"/>
<path d="M0 0 C3.43032485 1.41944477 5.20077043 2.72867352 7 6 C7.36716422 9.0918303 7.282193 12.14212725 7.1875 15.25 C7.17396484 16.09046875 7.16042969 16.9309375 7.14648438 17.796875 C7.11123464 19.86485938 7.0574302 21.93251271 7 24 C5.68 24 4.36 24 3 24 C3 17.73 3 11.46 3 5 C2.01 4.67 1.02 4.34 0 4 C0 2.68 0 1.36 0 0 Z " fill="#070707" transform="translate(499,403)"/>
<path d="M0 0 C0.721875 0.268125 1.44375 0.53625 2.1875 0.8125 C2.1875 1.4725 2.1875 2.1325 2.1875 2.8125 C1.21554687 3.33328125 0.24359375 3.8540625 -0.7578125 4.390625 C-3.88341133 6.39900741 -3.88341133 6.39900741 -4.40136719 8.72851562 C-4.62700552 11.0216545 -4.69514202 13.25843157 -4.6875 15.5625 C-4.708125 16.35527344 -4.72875 17.14804687 -4.75 17.96484375 C-4.79695818 19.91360815 -4.80824383 21.86317457 -4.8125 23.8125 C-5.8025 23.8125 -6.7925 23.8125 -7.8125 23.8125 C-7.94780844 20.74851549 -8.0467407 17.69052874 -8.125 14.625 C-8.16689453 13.76068359 -8.20878906 12.89636719 -8.25195312 12.00585938 C-8.33953169 7.4342585 -8.29428364 5.45487819 -5.46875 1.6875 C-2.8125 -0.1875 -2.8125 -0.1875 0 0 Z " fill="#040404" transform="translate(290.8125,402.1875)"/>
<path d="M0 0 C1.65 0 3.3 0 5 0 C5 1.32 5 2.64 5 4 C4.030625 4.474375 3.06125 4.94875 2.0625 5.4375 C-0.80477437 6.70193947 -0.80477437 6.70193947 -2 8 C-2.07205511 9.68608966 -2.08386068 11.37500659 -2.0625 13.0625 C-2.04896484 14.44115234 -2.04896484 14.44115234 -2.03515625 15.84765625 C-2.02355469 16.55792969 -2.01195312 17.26820313 -2 18 C-3.65 17.67 -5.3 17.34 -7 17 C-7.62384225 8.07559008 -7.62384225 8.07559008 -5.1875 3.875 C-3 2 -3 2 0 2 C0 1.34 0 0.68 0 0 Z " fill="#090909" transform="translate(258,402)"/>
<path d="M0 0 C1.65 0 3.3 0 5 0 C5.21908649 6.02487844 4.49398047 11.17549506 3 17 C2.71382813 18.16208984 2.71382813 18.16208984 2.421875 19.34765625 C1.95615457 21.23382399 1.47925183 23.11722494 1 25 C-1.56780471 21.1584024 -1.22688882 17.1860825 -1.125 12.75 C-1.11597656 12.00492187 -1.10695313 11.25984375 -1.09765625 10.4921875 C-1.07418358 8.66131941 -1.03831525 6.83061762 -1 5 C-0.34 5 0.32 5 1 5 C0.67 3.35 0.34 1.7 0 0 Z " fill="#F0F0F0" transform="translate(494,405)"/>
<path d="M0 0 C3.94220353 0.65703392 7.69160887 -0.00548383 11.625 -0.5625 C11.625 0.0975 11.625 0.7575 11.625 1.4375 C10.5525 1.56125 9.48 1.685 8.375 1.8125 C4.77816971 2.2230624 4.77816971 2.2230624 2.375 3.5625 C1.7975 3.85125 1.22 4.14 0.625 4.4375 C-0.365 4.1075 -1.355 3.7775 -2.375 3.4375 C-4.59325028 3.20514412 -4.59325028 3.20514412 -6.9375 3.1875 C-7.72253906 3.16171875 -8.50757813 3.1359375 -9.31640625 3.109375 C-9.99574219 3.21765625 -10.67507813 3.3259375 -11.375 3.4375 C-13.42627844 6.51441766 -13.64760872 7.37394999 -13.7890625 10.88671875 C-13.82773437 11.73427734 -13.86640625 12.58183594 -13.90625 13.45507812 C-13.9371875 14.33615234 -13.968125 15.21722656 -14 16.125 C-14.03867187 17.01767578 -14.07734375 17.91035156 -14.1171875 18.83007812 C-14.21140218 21.0323462 -14.29701588 23.23460722 -14.375 25.4375 C-14.705 25.4375 -15.035 25.4375 -15.375 25.4375 C-15.67916035 22.39589652 -15.94404321 19.35906022 -16.1875 16.3125 C-16.27708984 15.4565625 -16.36667969 14.600625 -16.45898438 13.71875 C-16.78145167 9.30603964 -16.88493952 6.41340255 -14.01171875 2.8828125 C-9.66884723 -1.14479871 -5.79008727 -1.37133646 0 0 Z " fill="#1E1E1E" transform="translate(378.375,400.5625)"/>
<path d="M0 0 C3.16130459 4.21507278 3.3367697 5.06071112 3 10 C2.01 10 1.02 10 0 10 C0 10.66 0 11.32 0 12 C-1.65 12 -3.3 12 -5 12 C-4.0022242 9.00667261 -3.2477975 8.05233685 -1 6 C-2.6396875 6.061875 -2.6396875 6.061875 -4.3125 6.125 C-8 6 -8 6 -11 4 C-7.37 2.68 -3.74 1.36 0 0 Z " fill="#F1F1F1" transform="translate(549,418)"/>
<path d="M0 0 C6.72045875 2.19037174 13.36724003 4.55765661 20 7 C17.70423322 9.29576678 16.09653751 10.0638375 13 11 C10.1875 10.625 10.1875 10.625 8 10 C9.32 8.68 10.64 7.36 12 6 C10.35 5.67 8.7 5.34 7 5 C7 5.66 7 6.32 7 7 C4.625 6.3125 4.625 6.3125 2 5 C0.6875 2.375 0.6875 2.375 0 0 Z " fill="#EFEFEF" transform="translate(252,419)"/>
<path d="M0 0 C0.33 0 0.66 0 1 0 C1 2.64 1 5.28 1 8 C1.66 8 2.32 8 3 8 C3 8.66 3 9.32 3 10 C3.99 10.33 4.98 10.66 6 11 C7.1875 13.5625 7.1875 13.5625 8 16 C6.68 17.32 5.36 18.64 4 20 C3.01 19.67 2.02 19.34 1 19 C-0.25433458 15.23699626 -0.10695422 11.72789091 -0.0625 7.8125 C-0.05798828 7.06291016 -0.05347656 6.31332031 -0.04882812 5.54101562 C-0.03706354 3.69397617 -0.01912865 1.84697787 0 0 Z " fill="#4A4A4A" transform="translate(316,393)"/>
<path d="M0 0 C0.66 0 1.32 0 2 0 C1.8125 2.3125 1.8125 2.3125 1 5 C0.17371094 5.38414062 -0.65257812 5.76828125 -1.50390625 6.1640625 C-4.41615599 7.86534071 -4.41615599 7.86534071 -4.671875 11.72265625 C-4.72223883 13.16862838 -4.74744147 14.6156533 -4.75 16.0625 C-4.92822581 23.85645161 -4.92822581 23.85645161 -6 26 C-7.32 25.67 -8.64 25.34 -10 25 C-9.34 24.67 -8.68 24.34 -8 24 C-7.98582031 22.81921875 -7.97164063 21.6384375 -7.95703125 20.421875 C-7.91012371 18.86454458 -7.86187635 17.3072541 -7.8125 15.75 C-7.80379883 14.58404297 -7.80379883 14.58404297 -7.79492188 13.39453125 C-7.6345387 9.22456868 -7.5501807 7.57764544 -4.57421875 4.453125 C-2 3 -2 3 0 3 C0 2.01 0 1.02 0 0 Z " fill="#2C2C2C" transform="translate(293,402)"/>
<path d="M0 0 C0.33 0 0.66 0 1 0 C1 5.94 1 11.88 1 18 C1.99 17.67 2.98 17.34 4 17 C4.33 12.38 4.66 7.76 5 3 C5.33 3 5.66 3 6 3 C6.02684679 5.64590014 6.04676357 8.29153096 6.0625 10.9375 C6.07087891 11.69224609 6.07925781 12.44699219 6.08789062 13.22460938 C6.09652441 15.14994313 6.05224333 17.07535581 6 19 C5.67 19.33 5.34 19.66 5 20 C3.35 20 1.7 20 0 20 C0 13.4 0 6.8 0 0 Z " fill="#303030" transform="translate(362,408)"/>
<path d="M0 0 C-0.875 4.875 -0.875 4.875 -2 6 C-7.73611111 6.27314815 -7.73611111 6.27314815 -10 6 C-10.66 5.34 -11.32 4.68 -12 4 C-10.3767313 3.3291288 -8.75132422 2.66342971 -7.125 2 C-6.22007812 1.62875 -5.31515625 1.2575 -4.3828125 0.875 C-2 0 -2 0 0 0 Z " fill="#E7E7E7" transform="translate(535,424)"/>
<path d="M0 0 C0.66 0.33 1.32 0.66 2 1 C1.01 2.485 1.01 2.485 0 4 C-0.16713569 6.62531524 -0.16713569 6.62531524 0 9 C1.32 9.66 2.64 10.32 4 11 C3.67 11.66 3.34 12.32 3 13 C0.08482708 11.92598892 -1.77810176 11.22189824 -4 9 C-4.375 6.0625 -4.375 6.0625 -4 3 C-2 1.125 -2 1.125 0 0 Z " fill="#040404" transform="translate(525,408)"/>
<path d="M0 0 C0.33 0 0.66 0 1 0 C1.309375 1.134375 1.61875 2.26875 1.9375 3.4375 C2.62924531 6.78775099 2.62924531 6.78775099 4 8 C6.32817964 8.36760731 8.6618385 8.70241581 11 9 C11.33 8.01 11.66 7.02 12 6 C12.33 6.99 12.66 7.98 13 9 C12.01 9.33 11.02 9.66 10 10 C9.67 10.99 9.34 11.98 9 13 C7.68445015 12.5504955 6.37261642 12.09010284 5.0625 11.625 C3.96615234 11.24214844 3.96615234 11.24214844 2.84765625 10.8515625 C1 10 1 10 0 8 C-0.13415472 5.3276379 -0.04318541 2.67749512 0 0 Z " fill="#323232" transform="translate(255,411)"/>
<path d="M0 0 C1.0725 0.2475 2.145 0.495 3.25 0.75 C3.25 1.08 3.25 1.41 3.25 1.75 C1.579375 2.1521875 1.579375 2.1521875 -0.125 2.5625 C-3.96840951 3.40809019 -3.96840951 3.40809019 -5.75 6.75 C-6.04991069 9.33885171 -6.25865225 11.84149082 -6.375 14.4375 C-6.41367187 15.13939453 -6.45234375 15.84128906 -6.4921875 16.56445312 C-6.5862334 18.29254655 -6.6691968 20.02123675 -6.75 21.75 C-7.08 21.75 -7.41 21.75 -7.75 21.75 C-7.85806144 18.83234109 -7.93732877 15.91868875 -8 13 C-8.03351563 12.175 -8.06703125 11.35 -8.1015625 10.5 C-8.19986781 4.40507067 -8.19986781 4.40507067 -5.96875 1.15625 C-3.75 -0.25 -3.75 -0.25 0 0 Z " fill="#FCFBFC" transform="translate(482.75,403.25)"/>
<path d="M0 0 C2.375 -0.125 2.375 -0.125 5 0 C5.66 0.66 6.32 1.32 7 2 C6.625 4.625 6.625 4.625 6 7 C4.68 7.33 3.36 7.66 2 8 C1.34 5.36 0.68 2.72 0 0 Z " fill="#232323" transform="translate(319,421)"/>
<path d="M0 0 C0 0.66 0 1.32 0 2 C-1.0725 2.12375 -2.145 2.2475 -3.25 2.375 C-6.84683029 2.7855624 -6.84683029 2.7855624 -9.25 4.125 C-9.8275 4.41375 -10.405 4.7025 -11 5 C-11.99 4.67 -12.98 4.34 -14 4 C-14 3.34 -14 2.68 -14 2 C-15.65 2 -17.3 2 -19 2 C-19 1.67 -19 1.34 -19 1 C-18.31292969 1.01160156 -17.62585938 1.02320313 -16.91796875 1.03515625 C-15.56638672 1.04869141 -15.56638672 1.04869141 -14.1875 1.0625 C-12.84751953 1.07990234 -12.84751953 1.07990234 -11.48046875 1.09765625 C-7.5257239 0.94195763 -4.07564359 -0.09056986 0 0 Z " fill="#2B2B2B" transform="translate(390,400)"/>
<path d="M0 0 C1.43931117 0.45261358 2.87638999 0.91232979 4.3125 1.375 C5.11300781 1.63023437 5.91351563 1.88546875 6.73828125 2.1484375 C9 3 9 3 12 5 C10.35 5 8.7 5 7 5 C7 5.66 7 6.32 7 7 C4.625 6.3125 4.625 6.3125 2 5 C0.6875 2.375 0.6875 2.375 0 0 Z " fill="#E7E7E7" transform="translate(252,419)"/>
<path d="M0 0 C0.33 0 0.66 0 1 0 C1.13277344 0.67546875 1.26554687 1.3509375 1.40234375 2.046875 C1.57894531 2.93890625 1.75554687 3.8309375 1.9375 4.75 C2.11152344 5.63171875 2.28554688 6.5134375 2.46484375 7.421875 C2.64144531 8.27265625 2.81804687 9.1234375 3 10 C3.144375 10.7425 3.28875 11.485 3.4375 12.25 C3.86100027 14.22388282 3.86100027 14.22388282 6.0625 15.25 C6.701875 15.4975 7.34125 15.745 8 16 C7.01 16.33 6.02 16.66 5 17 C2.63344822 15.34341375 1.42958407 14.4528653 0 12 C-0.44572896 7.96746391 -0.29001875 4.04092798 0 0 Z " fill="#2B2B2B" transform="translate(330,410)"/>
<path d="M0 0 C1.125 3.75 1.125 3.75 0 6 C-2.3140622 6.73075648 -4.64828869 7.40138258 -7 8 C-7.33 10.31 -7.66 12.62 -8 15 C-8.33 15 -8.66 15 -9 15 C-9.8125 11.75 -9.8125 11.75 -10 8 C-7.75 5.5625 -7.75 5.5625 -5 4 C-4.01 4 -3.02 4 -2 4 C-1.67 3.01 -1.34 2.02 -1 1 C-0.67 0.67 -0.34 0.34 0 0 Z " fill="#212121" transform="translate(265,402)"/>
<path d="M0 0 C2.62451617 2.62451617 2.5832868 4.4877828 3.125 8.125 C3.29257812 9.22070312 3.46015625 10.31640625 3.6328125 11.4453125 C3.75398438 12.28835938 3.87515625 13.13140625 4 14 C3.34 14 2.68 14 2 14 C0.09391902 10.78817851 -0.22266247 8.46117397 -0.125 4.75 C-0.09792969 3.41195313 -0.09792969 3.41195313 -0.0703125 2.046875 C-0.04710937 1.37140625 -0.02390625 0.6959375 0 0 Z " fill="#404040" transform="translate(300,410)"/>
<path d="M0 0 C1.98 0.99 3.96 1.98 6 3 C5.67 3.66 5.34 4.32 5 5 C5.99 5.66 6.98 6.32 8 7 C2.58461538 7.36923077 2.58461538 7.36923077 -0.375 5.5 C-0.91125 5.005 -1.4475 4.51 -2 4 C-1.33333333 2.66666667 -0.66666667 1.33333333 0 0 Z " fill="#F2F2F2" transform="translate(434,422)"/>
<path d="M0 0 C1.32 0 2.64 0 4 0 C4 2.64 4 5.28 4 8 C2.68 8 1.36 8 0 8 C-0.79953138 4.71303767 -1.09658936 3.28976808 0 0 Z " fill="#F9F9F9" transform="translate(303,410)"/>
<path d="M0 0 C-0.33 1.65 -0.66 3.3 -1 5 C-3.97 4.67 -6.94 4.34 -10 4 C-4 0 -4 0 0 0 Z " fill="#D9D9D9" transform="translate(548,419)"/>
<path d="M0 0 C0.33 0 0.66 0 1 0 C1 4.95 1 9.9 1 15 C1.99 15.33 2.98 15.66 4 16 C3.34 16.66 2.68 17.32 2 18 C0.48046875 16.98046875 0.48046875 16.98046875 -1 15 C-1.05546517 12.32891426 -0.96547069 9.94707177 -0.6875 7.3125 C-0.62626953 6.61060547 -0.56503906 5.90871094 -0.50195312 5.18554688 C-0.34897376 3.4557033 -0.17637398 1.72761503 0 0 Z " fill="#262626" transform="translate(349,411)"/>
<path d="M0 0 C1.125 1.625 1.125 1.625 2 4 C1.125 7.25 1.125 7.25 0 10 C-1.32 9.67 -2.64 9.34 -4 9 C-3.01 8.01 -2.02 7.02 -1 6 C-1.33 5.01 -1.66 4.02 -2 3 C-1.34 2.01 -0.68 1.02 0 0 Z " fill="#EBEBEB" transform="translate(549,418)"/>
<path d="M0 0 C2 1 2 1 2.6875 3 C2.790625 3.66 2.89375 4.32 3 5 C2 6 2 6 -0.50390625 6.09765625 C-2.01791016 6.08025391 -2.01791016 6.08025391 -3.5625 6.0625 C-4.57441406 6.05347656 -5.58632813 6.04445313 -6.62890625 6.03515625 C-7.41136719 6.02355469 -8.19382812 6.01195312 -9 6 C-9 5.67 -9 5.34 -9 5 C-6.03 5 -3.06 5 0 5 C0 3.35 0 1.7 0 0 Z " fill="#F1F0F1" transform="translate(449,403)"/>
<path d="M0 0 C0.474375 0.495 0.94875 0.99 1.4375 1.5 C2.75923698 3.11542197 2.75923698 3.11542197 4 3 C4 5.64 4 8.28 4 11 C2 9.4375 2 9.4375 0 7 C-0.25 3.25 -0.25 3.25 0 0 Z " fill="#E0E0E0" transform="translate(301,405)"/>
<path d="M0 0 C0.66 0.33 1.32 0.66 2 1 C0.6875 4.4375 0.6875 4.4375 -1 8 C-1.99 8.33 -2.98 8.66 -4 9 C-4.25 6.1875 -4.25 6.1875 -4 3 C-2 1.125 -2 1.125 0 0 Z " fill="#0E0E0E" transform="translate(525,408)"/>
<path d="M0 0 C0.66 0 1.32 0 2 0 C2 0.99 2 1.98 2 3 C2.66 3.33 3.32 3.66 4 4 C2.35 5.32 0.7 6.64 -1 8 C-1.93065133 5.39417629 -2.14917407 4.35801776 -1.0625 1.75 C-0.711875 1.1725 -0.36125 0.595 0 0 Z " fill="#FAFAFA" transform="translate(313,407)"/>
<path d="M0 0 C1.32 0.99 2.64 1.98 4 3 C3.34 4.65 2.68 6.3 2 8 C1.34 8 0.68 8 0 8 C0 5.36 0 2.72 0 0 Z " fill="#070707" transform="translate(317,403)"/>
<path d="M0 0 C0.33 0 0.66 0 1 0 C1 4.62 1 9.24 1 14 C1.66 14.33 2.32 14.66 3 15 C1.68 15.33 0.36 15.66 -1 16 C-0.67 10.72 -0.34 5.44 0 0 Z " fill="#181818" transform="translate(282,412)"/>
<path d="M0 0 C1.65 0 3.3 0 5 0 C5 2.64 5 5.28 5 8 C4.67 8 4.34 8 4 8 C3.67 6.35 3.34 4.7 3 3 C2.01 2.67 1.02 2.34 0 2 C0 1.34 0 0.68 0 0 Z " fill="#CFCECF" transform="translate(494,405)"/>
<path d="M0 0 C0 0.66 0 1.32 0 2 C0.66 2.33 1.32 2.66 2 3 C0.68 3.33 -0.64 3.66 -2 4 C-2 3.34 -2 2.68 -2 2 C-4.97 2 -7.94 2 -11 2 C-11 1.67 -11 1.34 -11 1 C-9.54182203 0.83197949 -8.0834516 0.66562857 -6.625 0.5 C-5.81289063 0.4071875 -5.00078125 0.314375 -4.1640625 0.21875 C-2 0 -2 0 0 0 Z " fill="#252525" transform="translate(534,421)"/>
<path d="M0 0 C0.99 0 1.98 0 3 0 C1.63016497 3.16115776 1.0109362 3.9927092 -2 6 C-2.99 5.34 -3.98 4.68 -5 4 C-4.360625 3.71125 -3.72125 3.4225 -3.0625 3.125 C-0.84793921 2.17176549 -0.84793921 2.17176549 0 0 Z " fill="#2F2F2F" transform="translate(271,420)"/>
</svg>
